<?xml version="1.0" standalone="no"?><!DOCTYPE svg PUBLIC "-//W3C//DTD SVG 1.1//EN" "http://www.w3.org/Graphics/SVG/1.1/DTD/svg11.dtd"><svg t="1652781546814" class="icon" viewBox="0 0 1026 1024" version="1.1" xmlns="http://www.w3.org/2000/svg" p-id="1240" xmlns:xlink="http://www.w3.org/1999/xlink" width="128.25" height="128"><defs><style type="text/css"></style></defs><path d="M513.024 963.584c-248.32 0-450.56-202.24-450.56-450.56s202.24-450.56 450.56-450.56 450.56 202.24 450.56 450.56-202.24 450.56-450.56 450.56z m0-800.768c-193.024 0-350.208 157.184-350.208 350.208s157.184 350.208 350.208 350.208 350.208-157.184 350.208-350.208-157.184-350.208-350.208-350.208z m-39.424 516.608c-9.728 9.728-22.016 14.848-35.328 14.848-13.312 0-26.112-5.12-35.328-14.848l-119.296-119.296c-9.728-10.24-14.848-23.04-14.336-36.864 0.512-13.824 5.632-26.112 15.872-35.84 9.728-9.216 22.528-14.336 36.352-14.336 13.824 0.512 26.112 5.632 35.84 15.872l83.968 83.968L628.224 384h-1.536l39.936-39.936c9.728-9.728 22.016-14.848 35.328-14.848 13.312 0 26.112 5.12 35.328 14.848 19.456 19.456 19.456 51.712 0 71.168l-263.68 264.192z" p-id="1241" fill="#1296db"></path></svg>