<?xml version="1.0" standalone="no"?><!DOCTYPE svg PUBLIC "-//W3C//DTD SVG 1.1//EN" "http://www.w3.org/Graphics/SVG/1.1/DTD/svg11.dtd"><svg t="1652950719854" class="icon" viewBox="0 0 1024 1024" version="1.1" xmlns="http://www.w3.org/2000/svg" p-id="17508" xmlns:xlink="http://www.w3.org/1999/xlink" width="128" height="128"><defs><style type="text/css"></style></defs><path d="M746.662019 512c0 51.835575 42.044582 93.865831 93.865831 93.865831 51.851948 0 93.865831-42.029232 93.865831-93.865831 0-51.836599-42.013883-93.865831-93.865831-93.865831C788.706601 418.135192 746.662019 460.163401 746.662019 512z" p-id="17509" fill="#dbdbdb"></path><path d="M89.604272 512c0 51.835575 42.043558 93.865831 93.864808 93.865831 51.822272 0 93.865831-42.029232 93.865831-93.865831 0-51.836599-42.043558-93.865831-93.865831-93.865831C131.648854 418.135192 89.604272 460.163401 89.604272 512z" p-id="17510" fill="#dbdbdb"></path><path d="M418.132634 512c0 51.835575 42.013883 93.865831 93.866854 93.865831 51.821249 0 93.864808-42.029232 93.864808-93.865831 0-51.836599-42.043558-93.865831-93.864808-93.865831C460.146517 418.135192 418.132634 460.163401 418.132634 512z" p-id="17511" fill="#dbdbdb"></path></svg>