<?xml version="1.0" standalone="no"?><!DOCTYPE svg PUBLIC "-//W3C//DTD SVG 1.1//EN" "http://www.w3.org/Graphics/SVG/1.1/DTD/svg11.dtd"><svg t="1653324588675" class="icon" viewBox="0 0 1024 1024" version="1.1" xmlns="http://www.w3.org/2000/svg" p-id="3348" xmlns:xlink="http://www.w3.org/1999/xlink" width="128" height="128"><defs><style type="text/css"></style></defs><path d="M0 0h1024v1024H0z" fill="#FFFFFF" p-id="3349"></path><path d="M339.386182 840.366545a93.090909 93.090909 0 0 1-93.090909-93.090909v-267.636363h-60.043637a34.909091 34.909091 0 0 1-21.248-62.603637l321.861819-246.923636a34.909091 34.909091 0 0 1 42.484363 0l321.873455 246.923636a34.909091 34.909091 0 0 1-21.248 62.603637h-60.043637v267.636363a93.090909 93.090909 0 0 1-93.090909 93.090909z" fill="#23C588" p-id="3350"></path><path d="M508.113455 652.916364a52.363636 52.363636 0 1 0-52.363637-52.363637 52.421818 52.421818 0 0 0 52.363637 52.363637m0 46.545454a98.909091 98.909091 0 1 1 98.90909-98.909091 98.909091 98.909091 0 0 1-98.90909 98.909091z" fill="#FFFFFF" p-id="3351"></path><path d="M614.725818 398.592H410.344727a23.272727 23.272727 0 0 1-23.272727-23.272727 23.272727 23.272727 0 0 1 23.272727-23.272728h204.381091a23.272727 23.272727 0 0 1 23.272727 23.272728 23.272727 23.272727 0 0 1-23.272727 23.272727z" fill="#FFFFFF" p-id="3352"></path></svg>