<?xml version="1.0" standalone="no"?><!DOCTYPE svg PUBLIC "-//W3C//DTD SVG 1.1//EN" "http://www.w3.org/Graphics/SVG/1.1/DTD/svg11.dtd"><svg t="1653324750437" class="icon" viewBox="0 0 1024 1024" version="1.1" xmlns="http://www.w3.org/2000/svg" p-id="4046" id="mx_n_1653324750438" xmlns:xlink="http://www.w3.org/1999/xlink" width="128" height="128"><defs><style type="text/css"></style></defs><path d="M0 0h1024v1024H0z" fill="#FFFFFF" p-id="4047"></path><path d="M192.256 221.090909m93.090909 0l453.317818 0q93.090909 0 93.090909 93.090909l0 453.317818q0 93.090909-93.090909 93.090909l-453.317818 0q-93.090909 0-93.090909-93.090909l0-453.317818q0-93.090909 93.090909-93.090909Z" fill="#9b969f" p-id="4048" data-spm-anchor-id="a313x.7781069.0.i8" class="selected"></path><path d="M512 588.008727a47.173818 47.173818 0 1 0-47.173818-47.173818 47.232 47.232 0 0 0 47.173818 47.173818m0 46.545455a93.719273 93.719273 0 1 1 93.719273-93.719273 93.719273 93.719273 0 0 1-93.719273 93.719273z" fill="#FFFFFF" p-id="4049"></path><path d="M666.833455 381.661091H331.636364a23.272727 23.272727 0 0 1-23.272728-23.272727 23.272727 23.272727 0 0 1 23.272728-23.272728h335.197091a23.272727 23.272727 0 0 1 23.272727 23.272728 23.272727 23.272727 0 0 1-23.272727 23.272727z" fill="#FFFFFF" p-id="4050"></path><path d="M753.396364 345.041455a11.636364 11.636364 0 0 1 0 19.781818l-106.042182 66.327272a11.636364 11.636364 0 0 1-17.803637-9.914181V288.581818a11.636364 11.636364 0 0 1 17.803637-9.867636z" fill="#FFFFFF" p-id="4051"></path><path d="M331.636364 471.261091a23.272727 23.272727 0 0 1-23.272728-23.272727v-89.6a23.272727 23.272727 0 0 1 23.272728-23.272728 23.272727 23.272727 0 0 1 23.272727 23.272728v89.6a23.272727 23.272727 0 0 1-23.272727 23.272727z" fill="#FFFFFF" p-id="4052"></path><path d="M687.732364 741.248H352.535273a23.272727 23.272727 0 0 1-23.272728-23.272727 23.272727 23.272727 0 0 1 23.272728-23.272728h335.197091a23.272727 23.272727 0 0 1 23.272727 23.272728 23.272727 23.272727 0 0 1-23.272727 23.272727z" fill="#FFFFFF" p-id="4053"></path><path d="M265.972364 731.322182a11.636364 11.636364 0 0 1 0-19.781818l106.042181-66.327273a11.636364 11.636364 0 0 1 17.803637 9.914182v132.654545a11.636364 11.636364 0 0 1-17.803637 9.867637z" fill="#FFFFFF" p-id="4054"></path><path d="M687.732364 741.236364a23.272727 23.272727 0 0 1-23.272728-23.272728v-72.145454a23.272727 23.272727 0 0 1 23.272728-23.272727 23.272727 23.272727 0 0 1 23.272727 23.272727v72.145454a23.272727 23.272727 0 0 1-23.272727 23.272728z" fill="#FFFFFF" p-id="4055"></path></svg>