<?xml version="1.0" standalone="no"?><!DOCTYPE svg PUBLIC "-//W3C//DTD SVG 1.1//EN" "http://www.w3.org/Graphics/SVG/1.1/DTD/svg11.dtd"><svg t="1653324580152" class="icon" viewBox="0 0 1024 1024" version="1.1" xmlns="http://www.w3.org/2000/svg" p-id="3026" xmlns:xlink="http://www.w3.org/1999/xlink" width="128" height="128"><defs><style type="text/css"></style></defs><path d="M0 0h1024v1024H0z" fill="#FFFFFF" p-id="3027"></path><path d="M151.272727 197.818182m93.090909 0l538.507637 0q93.090909 0 93.090909 93.090909l0 428.520727q0 93.090909-93.090909 93.090909l-538.507637 0q-93.090909 0-93.090909-93.090909l0-428.520727q0-93.090909 93.090909-93.090909Z" fill="#23C588" p-id="3028"></path><path d="M366.545455 458.624a52.363636 52.363636 0 1 0-52.363637-52.363636 52.421818 52.421818 0 0 0 52.363637 52.363636m0 46.545455a98.909091 98.909091 0 1 1 98.90909-98.909091 98.909091 98.909091 0 0 1-98.90909 98.909091z" fill="#FFFFFF" p-id="3029"></path><path d="M360.727273 551.714909a69.899636 69.899636 0 0 0-69.818182 69.818182v46.545454h151.272727v-46.545454a69.899636 69.899636 0 0 0-69.818182-69.818182h-11.636363m0-46.545454h11.636363a116.363636 116.363636 0 0 1 116.363637 116.363636v46.545454a46.545455 46.545455 0 0 1-46.545455 46.545455H290.909091a46.545455 46.545455 0 0 1-46.545455-46.545455v-46.545454a116.363636 116.363636 0 0 1 116.363637-116.363636z" fill="#FFFFFF" p-id="3030"></path><path d="M758.027636 430.743273h-186.181818a23.272727 23.272727 0 0 1-23.272727-23.272728 23.272727 23.272727 0 0 1 23.272727-23.272727h186.181818a23.272727 23.272727 0 0 1 23.272728 23.272727 23.272727 23.272727 0 0 1-23.272728 23.272728z" fill="#FFFFFF" p-id="3031"></path><path d="M758.027636 535.470545h-186.181818a23.272727 23.272727 0 0 1-23.272727-23.272727 23.272727 23.272727 0 0 1 23.272727-23.272727h186.181818a23.272727 23.272727 0 0 1 23.272728 23.272727 23.272727 23.272727 0 0 1-23.272728 23.272727z" fill="#FFFFFF" p-id="3032"></path><path d="M758.027636 640.197818h-186.181818a23.272727 23.272727 0 0 1-23.272727-23.272727 23.272727 23.272727 0 0 1 23.272727-23.272727h186.181818a23.272727 23.272727 0 0 1 23.272728 23.272727 23.272727 23.272727 0 0 1-23.272728 23.272727z" fill="#FFFFFF" p-id="3033"></path></svg>