<?xml version="1.0" standalone="no"?><!DOCTYPE svg PUBLIC "-//W3C//DTD SVG 1.1//EN" "http://www.w3.org/Graphics/SVG/1.1/DTD/svg11.dtd"><svg t="1652865836635" class="icon" viewBox="0 0 1024 1024" version="1.1" xmlns="http://www.w3.org/2000/svg" p-id="11249" xmlns:xlink="http://www.w3.org/1999/xlink" width="128" height="128"><defs><style type="text/css"></style></defs><path d="M298.35 84.69h427.3a213.65 213.65 0 0 1 213.66 213.66v427.3a213.65 213.65 0 0 1-213.66 213.66H298.34A213.65 213.65 0 0 1 84.69 725.66V298.35A213.66 213.66 0 0 1 298.35 84.69z" fill="#E8E7E6" p-id="11250"></path><path d="M792 504.56l-1.34 0.05C777.09 368.79 662.9 262.74 524 262.74c-144.77 0-262.71 115.19-267.82 259.21h23.91l-24 0.81c-3.76 125 67.29 236.09 201.55 273s112.74-61.85 100.78-69.09-20.39-26.83-9.83-49.35 19.64-21.31 68.82-22.21C750.85 657.28 782.39 562 789.75 522h2.06c-0.12-3.29-0.31-6.57-0.54-9.83 0.58-4.83 0.73-7.61 0.73-7.61z m-434 29.65a48.1 48.1 0 1 1 47.84-48.1 48 48 0 0 1-47.84 48.1z m88.6-116.07a48 48 0 1 1 47.95-48 48 48 0 0 1-47.93 48z m150 2.53a48.1 48.1 0 1 1 47.85-48.1 48 48 0 0 1-47.85 48.1z m93.26 113.54a48.1 48.1 0 1 1 47.95-48.1 48 48 0 0 1-47.95 48.1z" fill="#DD4F47" p-id="11251"></path></svg>