<?xml version="1.0" standalone="no"?><!DOCTYPE svg PUBLIC "-//W3C//DTD SVG 1.1//EN" "http://www.w3.org/Graphics/SVG/1.1/DTD/svg11.dtd"><svg t="1652855584122" class="icon" viewBox="0 0 1024 1024" version="1.1" xmlns="http://www.w3.org/2000/svg" p-id="7976" xmlns:xlink="http://www.w3.org/1999/xlink" width="128" height="128"><defs><style type="text/css"></style></defs><path d="M512 269.922592l0 121.038704 161.384597-161.384597L512 68.191078l0 121.038704c-178.330548 0-322.770218 144.43967-322.770218 322.770218 0 63.343677 18.559705 122.047684 50.02944 171.874509l58.905598-58.905598c-17.953907-33.689287-28.242228-72.018244-28.242228-112.969934C269.922592 378.251833 378.251833 269.922592 512 269.922592zM784.740778 340.124468l-58.905598 58.905598c17.953907 33.689287 28.242228 72.018244 28.242228 112.969934 0 133.748167-108.329241 242.077408-242.077408 242.077408L512 633.038704 350.614379 794.423301l161.384597 161.384597L511.998977 834.770218c178.330548 0 322.770218-144.43967 322.770218-322.770218C834.770218 448.656323 816.210513 389.952316 784.740778 340.124468z" p-id="7977" fill="#04BE02"></path></svg>