<?xml version="1.0" standalone="no"?><!DOCTYPE svg PUBLIC "-//W3C//DTD SVG 1.1//EN" "http://www.w3.org/Graphics/SVG/1.1/DTD/svg11.dtd"><svg t="1652061095184" class="icon" viewBox="0 0 1024 1024" version="1.1" xmlns="http://www.w3.org/2000/svg" p-id="1479" xmlns:xlink="http://www.w3.org/1999/xlink" width="128" height="128"><defs><style type="text/css"></style></defs><path d="M796.89 64.5H227.1c-87.19 0-158.13 70.94-158.13 158.13V959.5l324.49-180.43L717.95 959.5V222.64h-0.01c0-43.53 35.41-78.94 78.94-78.94s78.94 35.41 78.94 78.94v277.47c-0.14 43.39-35.55 78.68-78.94 78.68V658c86.92 0 157.86-70.71 158.14-157.76v-277.6c0.01-87.2-70.93-158.14-158.13-158.14zM393.46 688.45L148.17 824.84V651.68l245.21-138.3 245.38 138.4v173.06l-245.3-136.39z m245.29-127.61l-245.38-138.4-245.2 138.31V222.63c0-43.52 35.41-78.93 78.93-78.93h432.8c-13.45 23.25-21.15 50.21-21.15 78.94h0.01v338.2z" p-id="1480" fill="#9b969f"></path></svg>