<?xml version="1.0" standalone="no"?><!DOCTYPE svg PUBLIC "-//W3C//DTD SVG 1.1//EN" "http://www.w3.org/Graphics/SVG/1.1/DTD/svg11.dtd"><svg t="1652323628863" class="icon" viewBox="0 0 1024 1024" version="1.1" xmlns="http://www.w3.org/2000/svg" p-id="1088" xmlns:xlink="http://www.w3.org/1999/xlink" width="128" height="128"><defs><style type="text/css"></style></defs><path d="M512 930.56a21.333333 21.333333 0 0 1-21.333333-21.333333v-149.333334a21.333333 21.333333 0 0 1 42.666666 0v149.333334a21.333333 21.333333 0 0 1-21.333333 21.333333zM213.333333 538.026667a148.053333 148.053333 0 0 1-147.2-147.84v-141.226667a42.666667 42.666667 0 0 1 42.666667-42.666667H320a42.666667 42.666667 0 0 1 42.666667 42.666667v141.226667a149.333333 149.333333 0 0 1-149.333334 147.84z m106.666667-289.066667H108.8v141.226667a105.386667 105.386667 0 0 0 210.773333 0zM810.666667 538.026667a149.333333 149.333333 0 0 1-149.333334-147.84v-141.226667a42.666667 42.666667 0 0 1 42.666667-42.666667h211.2a42.666667 42.666667 0 0 1 42.666667 42.666667v141.226667a148.053333 148.053333 0 0 1-147.2 147.84z m104.533333-289.066667H704v141.226667a105.386667 105.386667 0 0 0 210.773333 0z" fill="#CCCCCC" p-id="1089"></path><path d="M264.746667 82.346667h495.786666A50.133333 50.133333 0 0 1 810.666667 132.266667v331.946666a298.666667 298.666667 0 0 1-298.666667 298.666667 298.666667 298.666667 0 0 1-298.666667-298.666667V132.266667a50.133333 50.133333 0 0 1 50.133334-50.133334zM762.24 941.653333H262.826667a21.333333 21.333333 0 0 1 0-42.666666h499.413333a21.333333 21.333333 0 1 1 0 42.666666z" fill="#CCCCCC" p-id="1090"></path><path d="M651.733333 286.08l-51.626666 38.613333a21.333333 21.333333 0 0 1-32.426667-8.746666l-38.826667-92.586667a18.986667 18.986667 0 0 0-32.426666 0l-38.826667 92.586667a21.333333 21.333333 0 0 1-32.426667 8.746666l-51.626666-38.613333c-16.64-12.373333-35.626667 3.413333-29.226667 23.893333l41.6 168.32a9.813333 9.813333 0 0 0 9.173333 6.826667h234.666667a9.813333 9.813333 0 0 0 9.386667-6.826667l41.386666-168.32c6.613333-20.48-12.373333-36.266667-28.8-23.893333z" fill="#FCFCFC" p-id="1091"></path></svg>