<?xml version="1.0" standalone="no"?><!DOCTYPE svg PUBLIC "-//W3C//DTD SVG 1.1//EN" "http://www.w3.org/Graphics/SVG/1.1/DTD/svg11.dtd"><svg t="1652060336709" class="icon" viewBox="0 0 1102 1024" version="1.1" xmlns="http://www.w3.org/2000/svg" p-id="757" xmlns:xlink="http://www.w3.org/1999/xlink" width="137.75" height="128"><defs><style type="text/css"></style></defs><path d="M656.410256 13.128205a144.410256 144.410256 0 0 1 128.656411 210.051282H997.74359a91.897436 91.897436 0 0 1 91.897436 91.897436v157.538462a91.897436 91.897436 0 0 1-78.769231 90.952205V866.461538a144.410256 144.410256 0 0 1-138.60759 144.305231L866.461538 1010.871795H236.307692a144.410256 144.410256 0 0 1-144.30523-138.60759L91.897436 866.461538V563.593846A91.897436 91.897436 0 0 1 13.128205 472.615385v-157.538462A91.897436 91.897436 0 0 1 105.025641 223.179487h212.676923A144.410256 144.410256 0 0 1 551.384615 58.420513 143.858872 143.858872 0 0 1 656.410256 13.128205z m-144.01641 551.384616H170.666667V866.461538a65.641026 65.641026 0 0 0 61.334974 65.509744L236.307692 932.102564h276.086154v-367.589743z m419.708718 0H591.163077v367.589743H866.461538a65.641026 65.641026 0 0 0 65.509744-61.334974L932.102564 866.461538V564.512821z m-419.708718-262.564103H105.025641a13.128205 13.128205 0 0 0-13.128205 13.128205v157.538462a13.128205 13.128205 0 0 0 13.128205 13.128205h407.368205v-183.794872zM997.74359 301.948718H591.163077v183.794872H997.74359a13.128205 13.128205 0 0 0 12.918154-10.765128L1010.871795 472.615385v-157.538462a13.128205 13.128205 0 0 0-13.128205-13.128205z m-551.384616-210.051282a65.641026 65.641026 0 1 0 0 131.282051 65.641026 65.641026 0 0 0 0-131.282051z m210.051282 0a65.641026 65.641026 0 1 0 0 131.282051 65.641026 65.641026 0 0 0 0-131.282051z" p-id="758"></path></svg>