<?xml version="1.0" standalone="no"?><!DOCTYPE svg PUBLIC "-//W3C//DTD SVG 1.1//EN" "http://www.w3.org/Graphics/SVG/1.1/DTD/svg11.dtd"><svg t="1652077936164" class="icon" viewBox="0 0 1024 1024" version="1.1" xmlns="http://www.w3.org/2000/svg" p-id="3361" xmlns:xlink="http://www.w3.org/1999/xlink" width="128" height="128"><defs><style type="text/css"></style></defs><path d="M927.999 579.44c0-95.279-165.09-173.579-376.375-182.068v2.822l2.823 18.875c111.309 6.593 206.588 33.957 258.472 72.633 27.364 20.75 43.395 43.395 43.395 68.863 0 10.386-2.823 19.801-7.541 29.239-7.541 14.156-19.801 27.364-36.78 39.624-59.425 43.395-173.58 72.633-304.69 72.633-131.11 0-245.263-29.238-304.689-72.633-16.978-12.26-29.238-25.468-36.779-39.624-4.719-9.438-7.541-19.801-7.541-29.239 0-19.8 10.386-38.676 28.29-56.603 47.165-45.269 149.985-78.3 273.554-84.893l2.823-20.749c-203.766 11.312-362.24 87.738-362.24 181.12 0 4.72 0.947 9.438 0.947 14.157 1.897 12.26 6.593 23.571 14.157 34.905 0 0 0 0.948 0.948 0.948 49.062 76.404 208.462 132.06 397.147 132.06 144.318 0 270.732-32.083 344.314-82.071-69.811 62.247-209.41 103.768-370.73 103.768-180.172 0-332.98-52.832-391.479-126.414 21.697 105.643 199.047 187.713 414.125 187.713 230.16 0 416.946-93.382 416.946-209.41v-46.217h-0.948C928 587.004 928 583.233 928 579.44z" p-id="3362"></path><path d="M791.221 539.839c-16.03 0-30.186 13.208-30.186 30.186 0 8.49 2.822 15.082 8.489 20.75s13.208 9.437 21.697 9.437 16.03-3.77 21.698-9.438 8.49-12.26 8.49-20.749c0-16.978-13.209-30.186-30.188-30.186z m-232.056-95.28l14.157 98.102c0 20.749-53.758 31.135-65.093 31.135s-65.092-10.386-65.092-30.187l14.157-99.05c-100.946 9.438-176.402 47.166-176.402 91.51 0 19.8 15.105 38.675 41.498 53.757 41.499 23.594 109.413 39.624 185.84 39.624 76.403 0 144.318-16.03 185.839-39.624 26.416-15.082 41.498-33.957 41.498-53.758 0-44.343-75.456-82.07-176.402-91.508z" p-id="3363"></path><path d="M368.63 382.29c9.438 0 16.979-3.77 23.571-9.438h84.894l-3.771 25.468-2.822 20.75-0.949 8.488-2.822 16.98-14.156 100.923c0 7.54 38.676 19.8 55.654 19.8s55.655-12.26 55.655-20.749l-14.156-99.997-2.823-16.98-0.948-8.488-2.822-18.876v-1.896l-3.77-24.52h94.33c6.593 5.667 14.156 9.438 23.594 9.438 18.875 0 34.906-16.03 34.906-34.906 0-18.875-16.03-34.905-34.906-34.905-9.438 0-16.979 3.77-23.594 9.437H531.823l-1.874-13.208c1.874-0.948 2.823-0.948 4.72-1.896 1.896-0.948 2.821-0.948 4.718-1.897 21.697-11.311 35.854-33.009 35.854-59.425 0-36.78-30.187-66.966-66.966-66.966s-66.967 30.187-66.967 66.966c0 25.468 15.083 48.114 35.854 59.425 1.897 0.949 2.822 1.897 4.719 1.897 1.897 0.948 2.822 0.948 4.719 1.896l-1.897 13.208h-92.456c-6.593-5.667-14.157-9.437-23.572-9.437-18.875 0-34.905 16.03-34.905 34.905-0.045 17.972 15.985 34.003 34.86 34.003z m182.994-142.445s-3.77-8.489-19.8-22.645c-8.49-8.49-23.595-16.979-23.595-16.979 42.447 1.897 43.395 39.624 43.395 39.624z" p-id="3364"></path></svg>