<?xml version="1.0" standalone="no"?><!DOCTYPE svg PUBLIC "-//W3C//DTD SVG 1.1//EN" "http://www.w3.org/Graphics/SVG/1.1/DTD/svg11.dtd"><svg t="1652926305513" class="icon" viewBox="0 0 1024 1024" version="1.1" xmlns="http://www.w3.org/2000/svg" p-id="10012" xmlns:xlink="http://www.w3.org/1999/xlink" width="128" height="128"><defs><style type="text/css"></style></defs><path d="M477.637584 676.939597h54.979866c19.242953 0 34.362416 15.119463 34.362416 34.362416v261.154363c0 19.242953-15.119463 34.362416-34.362416 34.362416h-54.979866c-19.242953 0-34.362416-15.119463-34.362416-34.362416v-261.154363c0-19.242953 15.119463-34.362416 34.362416-34.362416z" fill="#dbdbdb" p-id="10013"></path><path d="M532.61745 1024h-54.979866c-28.177181 0-51.543624-23.366443-51.543624-51.543624v-261.154363c0-28.177181 23.366443-51.543624 51.543624-51.543624h54.979866c28.177181 0 51.543624 23.366443 51.543624 51.543624v261.154363c0 28.177181-23.366443 51.543624-51.543624 51.543624z m-54.979866-329.879195c-9.621477 0-17.181208 7.559732-17.181208 17.181208v261.154363c0 9.621477 7.559732 17.181208 17.181208 17.181208h54.979866c9.621477 0 17.181208-7.559732 17.181208-17.181208v-261.154363c0-9.621477-7.559732-17.181208-17.181208-17.181208h-54.979866z" fill="#dbdbdb" p-id="10014"></path><path d="M524.37047 26.802685l309.948993 624.021476c13.744966 27.489933 2.748993 60.477852-24.74094 73.535571-0.687248 0-0.687248 0.687248-1.374496 0.687248-73.53557 34.362416-172.499329 51.543624-296.204027 51.543624s-222.668456-17.181208-296.204027-51.543624c-27.489933-13.057718-39.173154-45.358389-26.802684-72.848322 0-0.687248 0.687248-0.687248 0.687248-1.374497L499.62953 26.802685c3.436242-6.872483 11.683221-9.621477 18.555705-6.185235 2.748993 1.374497 4.810738 3.436242 6.185235 6.185235z" fill="#dbdbdb" p-id="10015"></path><path d="M520.934228 40.547651L804.080537 611.651007c-65.288591 45.358389-163.565101 68.724832-295.516779 68.724832S278.33557 657.696644 213.04698 611.651007L496.193289 40.547651c3.436242-6.872483 11.683221-9.621477 18.555704-6.185235 2.748993 1.374497 4.810738 3.436242 6.185235 6.185235z" fill="#dbdbdb" p-id="10016"></path><path d="M512 793.771812c-125.766443 0-228.166443-17.868456-303.763758-53.605369-35.736913-17.181208-51.543624-59.790604-35.049665-96.214765l0.687249-1.374497L484.510067 19.242953C487.946309 11.683221 494.818792 6.185235 502.378523 3.436242c7.559732-2.748993 16.49396-2.061745 23.366443 1.374496 6.185235 2.748993 10.995973 8.24698 13.744967 13.744967l309.948993 624.021476c17.868456 35.736913 3.436242 79.033557-32.300671 96.902014l-1.374497 0.687248c-75.597315 35.736913-177.997315 53.605369-303.763758 53.605369z m0-753.224161l-307.2 618.52349c-8.934228 18.555705-0.687248 41.234899 18.555705 50.169127 70.786577 32.987919 168.375839 50.169128 289.331543 50.169128s218.544966-17.181208 289.331544-50.169128l0.687248-0.687248c18.555705-8.934228 26.115436-32.300671 17.181208-50.856376L512 40.547651z m-2.748993-6.185235z" fill="#dbdbdb" p-id="10017"></path><path d="M481.073826 515.436242c-22.679195 0-41.234899-20.61745-41.2349-45.35839 0-8.934228 6.872483-16.49396 14.432215-16.493959s14.432215 7.559732 14.432215 16.493959c0 6.872483 5.497987 13.057718 11.683221 13.057718s11.683221-5.497987 11.683222-13.057718c0-8.934228 6.872483-16.49396 14.432214-16.493959s14.432215 7.559732 14.432215 16.493959C522.308725 494.818792 503.75302 515.436242 481.073826 515.436242z" fill="#dbdbdb" p-id="10018"></path><path d="M536.053691 515.436242c-22.679195 0-41.234899-20.61745-41.234899-45.35839 0-8.934228 6.872483-16.49396 14.432215-16.493959s14.432215 7.559732 14.432214 16.493959c0 6.872483 5.497987 13.057718 11.683222 13.057718s11.683221-5.497987 11.683221-13.057718c0-8.934228 6.872483-16.49396 14.432215-16.493959s14.432215 7.559732 14.432215 16.493959C577.288591 494.818792 558.732886 515.436242 536.053691 515.436242z" fill="#dbdbdb" p-id="10019"></path><path d="M679.001342 536.053691h-59.103355c-8.24698 0-15.119463-6.185235-15.119464-13.744966s6.872483-13.744966 15.119464-13.744967h59.103355c8.24698 0 15.119463 6.185235 15.119463 13.744967s-6.872483 13.744966-15.119463 13.744966z" fill="#dbdbdb" p-id="10020"></path><path d="M672.816107 481.073826c-8.24698 0-14.432215-7.559732-14.432214-16.49396 0-7.559732-5.497987-13.057718-11.683222-13.057718s-11.683221 6.185235-11.683221 13.057718c0 8.934228-6.872483 16.49396-14.432215 16.49396-8.934228 0-15.806711-7.559732-15.806712-16.49396 0-25.428188 18.555705-45.358389 41.2349-45.358389s41.234899 20.61745 41.234899 45.358389c0 8.934228-6.872483 16.49396-14.432215 16.49396z" fill="#dbdbdb" p-id="10021"></path><path d="M410.974497 536.053691h-59.103356c-8.24698 0-15.119463-6.185235-15.119463-13.744966s6.872483-13.744966 15.119463-13.744967h59.103356c8.24698 0 15.119463 6.185235 15.119463 13.744967s-6.872483 13.744966-15.119463 13.744966z" fill="#dbdbdb" p-id="10022"></path><path d="M404.789262 481.073826c-8.24698 0-14.432215-7.559732-14.432215-16.49396 0-7.559732-5.497987-13.057718-11.683221-13.057718-6.872483 0-11.683221 6.185235-11.683222 13.057718 0 8.934228-6.872483 16.49396-14.432215 16.49396-8.934228 0-15.806711-7.559732-15.806711-16.49396 0-25.428188 18.555705-45.358389 41.234899-45.358389s41.234899 20.61745 41.2349 45.358389c0 8.934228-6.872483 16.49396-14.432215 16.49396z" fill="#dbdbdb" p-id="10023"></path><path d="M295.516779 584.161074m-13.744967 0a13.744966 13.744966 0 1 0 27.489933 0 13.744966 13.744966 0 1 0-27.489933 0Z" fill="#dbdbdb" p-id="10024"></path><path d="M350.496644 711.302013h-2.061745c-72.161074-8.24698-92.091275-18.555705-99.651006-32.300671-13.744966-24.053691 5.497987-52.918121 11.683221-62.539597 4.810738-8.24698 15.806711-10.308725 24.053691-4.810738 8.24698 4.810738 10.308725 15.806711 4.810739 24.053691-10.995973 17.181208-10.995973 24.74094-10.995974 26.802685 3.436242 2.061745 17.868456 9.621477 74.222819 15.806711 9.621477 1.374497 16.49396 9.621477 15.119463 19.242953-1.374497 7.559732-8.24698 13.744966-17.181208 13.744966z m-72.848322-50.856375z" fill="#dbdbdb" p-id="10025"></path></svg>