<?xml version="1.0"?>
<svg width="1024" height="1024" xmlns="http://www.w3.org/2000/svg" xmlns:svg="http://www.w3.org/2000/svg" xmlns:xlink="http://www.w3.org/1999/xlink" class="icon" version="1.1">
 <defs>
  <style type="text/css"/>
  <symbol class="icon" height="128" id="svg_2" version="1.1" viewBox="0 0 1024 1024" width="128" xmlns="http://www.w3.org/2000/svg" xmlns:xlink="http://www.w3.org/1999/xlink">
   <defs>
    <style type="text/css"/>
   </defs>
   <path d="m369.1,773.3c-58.5,-40.5 -99.6,-91.3 -125.6,-147.8c-55.5,-110.2 -53.2,-244 4.8,-358.9c1,-2.4 1.9,-4.8 2.9,-7.2c-1.8,-0.7 -3.4,-0.6 -4.3,-0.4c-1.1,0.3 -3.3,1 -4.6,3.3c-34.1,57.5 -52.6,123.1 -53.5,189.9c-0.2,11.1 0.7,22.4 1.5,33l0.3,3.1c2.1,24.8 5.5,46.2 10.4,65.2l0.2,0.9c5.2,20 13,40.6 23.8,63l6.5,13.4c9.4,19.5 18.2,34.8 27.7,48.2c26.5,37.4 59.4,69.6 97.7,95.6c56.2,38.1 119,59.2 182.4,64.6c-59.1,-7.8 -117.3,-29.3 -170.2,-65.9z" fill="#E5B1C5"/>
   <path d="m512,0c-282.8,0 -512,229.2 -512,512s229.2,512 512,512s512,-229.2 512,-512s-229.2,-512 -512,-512zm59.5,871.6c-80.1,0 -161,-23.2 -232.1,-71.4c-41.4,-28.1 -76.9,-62.8 -105.6,-103.3c-10.6,-14.9 -20.2,-31.6 -30.3,-52.7l-6.5,-13.4c-11.7,-24.3 -20.2,-46.7 -25.9,-68.7l-0.1,-0.3l15.1,-3.6l-15.2,3.2c-5.4,-21 -9.1,-44 -11.3,-70.6l-0.3,-3.1c-1,-11.5 -1.8,-23.7 -1.7,-36.1c0.9,-72.2 21,-143.2 57.9,-205.4c5.4,-9 14.3,-15.5 24.6,-17.8c10.3,-2.3 21.2,-0.2 29.9,5.7l623.2,422.4c8,5.4 13.5,14.1 15.1,23.6c1.6,9.6 -0.9,19.6 -6.8,27.4c-81.1,107.2 -204.6,164.1 -330,164.1z" fill="#FFCAE0"/>
   <path d="m368.1,766.4c-55.9,-37.9 -97.3,-86.6 -124.7,-141c26,56.5 67.1,107.3 125.6,147.8c52.9,36.6 111.2,58.1 170.1,65.8c126.8,10.7 255.6,-41.9 337.6,-150.2c1.1,-1.4 1,-2.8 0.9,-3.6c-0.1,-0.9 -0.6,-2.1 -1.9,-2.9l-20.6,-13.9c-121.4,152.3 -315.5,214.2 -487,98zm-116.3,-506.8c-0.2,-0.1 -0.5,-0.3 -0.7,-0.4c-1,2.4 -2,4.8 -2.9,7.2c1.2,-2.2 2.4,-4.5 3.6,-6.8z" fill="#5FC457"/>
   <path d="m243.4,625.4c27.4,54.4 68.8,103.1 124.7,141c171.5,116.2 365.6,54.3 487,-98l-4.7,-3.2c-108,154.9 -320.2,195.1 -476.3,89.3c-156,-105.8 -197.3,-317.7 -93.5,-475.5l-28.2,-19.1l-0.6,-0.3c-1.2,2.3 -2.5,4.6 -3.6,6.9c-58,115 -60.3,248.7 -4.8,358.9z" fill="#7EFC75"/>
   <path d="m374.2,754.5c156.1,105.8 368.2,65.6 476.3,-89.3l-11.9,-8.1c-105.7,140.3 -303.4,174.9 -449.7,75.7s-187.5,-295.6 -96.3,-445.7l-11.9,-8.1c-103.9,157.8 -62.6,369.7 93.5,475.5z" fill="#FFFFFF"/>
   <path d="m388.9,732.8c146.3,99.2 344,64.6 449.6,-75.7l-27.2,-18.4c-117.8,133.4 -271.7,186.8 -418.1,87.6c-146.2,-99.1 -191.5,-289.5 -100.6,-439.2c-91.2,150.1 -50,346.6 96.3,445.7z" fill="#C40C4E"/>
   <path d="m393.3,726.3c146.3,99.2 300.3,45.8 418.1,-87.6l-518.8,-351.6c-90.9,149.7 -45.6,340.1 100.7,439.2zm140.5,-136.9c6.6,-9.8 19.9,-12.3 29.7,-5.7c9.8,6.6 12.3,19.9 5.7,29.7s-19.9,12.3 -29.7,5.7c-9.8,-6.7 -12.4,-20 -5.7,-29.7zm-50.1,43.8c2.9,-0.6 5.6,1.2 6.2,4c0.6,2.8 -1.2,5.6 -4,6.2c-5,1.1 -9.6,1.6 -13.8,1.6c-9.4,0 -16.9,-2.7 -22.6,-7.9c-12.8,-12 -9.9,-33 -9.7,-33.8c0.4,-2.8 3,-4.8 5.9,-4.4c2.8,0.4 4.8,3.1 4.4,5.9c0,0.2 -2.3,16.5 6.6,24.8c5.5,5.1 14.6,6.3 27,3.6zm-50.2,-111.8c6.6,-9.8 19.9,-12.3 29.7,-5.7c9.8,6.6 12.3,19.9 5.7,29.7c-6.6,9.8 -19.9,12.3 -29.7,5.7c-9.8,-6.7 -12.4,-19.9 -5.7,-29.7zm-157.4,-170.9c7.6,-20 15.3,-32.3 15.6,-32.8c4.6,-7.3 14.2,-9.4 21.4,-4.8c7.3,4.6 9.4,14.2 4.9,21.4c-0.2,0.3 -6.5,10.6 -12.9,27.2c-2.4,6.2 -8.3,10 -14.5,10c-1.8,0 -3.7,-0.3 -5.5,-1c-8,-3 -12,-12 -9,-20zm5.1,34.7c8.5,1.3 14.3,9.3 13,17.8c-2.8,17.9 -2.9,35.5 -0.4,52.4c1.3,8.5 -4.6,16.4 -13.1,17.7c-0.8,0.1 -1.5,0.2 -2.3,0.2c-7.6,0 -14.2,-5.5 -15.4,-13.3c-3,-20 -2.8,-40.7 0.4,-61.7c1.4,-8.6 9.4,-14.4 17.8,-13.1z" fill="#FF296B"/>
   <path d="m908.3,680.2c-1.6,-9.6 -7.1,-18.2 -15.1,-23.6l-623.3,-422.4c-8.7,-5.9 -19.6,-7.9 -29.9,-5.7c-10.3,2.3 -19.2,8.8 -24.6,17.8c-36.9,62.1 -56.9,133.2 -57.9,205.4c-0.2,12.4 0.7,24.6 1.7,36.1l0.3,3.1c2.2,26.6 5.9,49.6 11.3,70.6l15.2,-3.2l-15.1,3.6l0.1,0.3c5.7,21.9 14.2,44.4 25.9,68.7l6.5,13.4c10.1,21.1 19.8,37.8 30.3,52.7c28.7,40.5 64.2,75.2 105.6,103.3c71.1,48.2 152,71.4 232.1,71.4c125.4,0 249,-56.9 330,-163.9c6,-7.9 8.5,-17.9 6.9,-27.6zm-649.2,-1.3c-9.5,-13.4 -18.3,-28.8 -27.7,-48.2l-6.5,-13.4c-10.8,-22.4 -18.6,-43 -23.8,-63l-0.2,-0.9c-4.9,-19 -8.3,-40.3 -10.4,-65.2l-0.3,-3.1c-0.9,-10.6 -1.7,-22 -1.5,-33c0.9,-66.8 19.4,-132.4 53.5,-189.9c1.4,-2.3 3.5,-3.1 4.6,-3.3c0.9,-0.2 2.6,-0.3 4.3,0.4c0.2,0.1 0.5,0.2 0.7,0.4l0.6,0.3l28.2,19.1l11.9,8.1l518.8,351.6l27.2,18.4l11.9,8.1l4.7,3.2l20.6,13.9c1.3,0.9 1.7,2.1 1.9,2.9c0.1,0.7 0.2,2.2 -0.9,3.6c-81.9,108.2 -210.8,160.9 -337.6,150.1c-63.3,-5.4 -126.2,-26.5 -182.4,-64.6c-38.2,-25.9 -71.1,-58.1 -97.6,-95.5z"/>
   <path d="m439.2,551.1c9.8,6.6 23.1,4.1 29.7,-5.7c6.6,-9.8 4.1,-23.1 -5.7,-29.7c-9.8,-6.6 -23.1,-4.1 -29.7,5.7c-6.7,9.8 -4.1,23 5.7,29.7zm100.3,67.9c9.8,6.6 23.1,4.1 29.7,-5.7s4.1,-23.1 -5.7,-29.7c-9.8,-6.6 -23.1,-4.1 -29.7,5.7c-6.7,9.8 -4.1,23.1 5.7,29.7zm-89.4,-14.2c0.4,-2.8 -1.5,-5.5 -4.4,-5.9c-2.9,-0.4 -5.5,1.5 -5.9,4.4c-0.1,0.9 -3.1,21.8 9.7,33.8c5.6,5.3 13.2,7.9 22.6,7.9c4.2,0 8.8,-0.5 13.8,-1.6c2.8,-0.6 4.6,-3.4 4,-6.2c-0.6,-2.8 -3.3,-4.6 -6.2,-4c-12.4,2.7 -21.5,1.4 -27,-3.7c-8.9,-8.3 -6.7,-24.6 -6.6,-24.7z"/>
   <path d="m263,459.9c1.1,7.7 7.8,13.3 15.4,13.3c0.8,0 1.5,-0.1 2.3,-0.2c8.5,-1.3 14.4,-9.2 13.1,-17.7c-2.5,-16.9 -2.4,-34.5 0.4,-52.4c1.3,-8.5 -4.5,-16.4 -13,-17.8c-8.4,-1.3 -16.4,4.5 -17.8,13c-3.2,21 -3.3,41.8 -0.4,61.8zm22.2,-89.4c1.8,0.7 3.7,1 5.5,1c6.3,0 12.2,-3.8 14.5,-10c6.3,-16.7 12.7,-27 12.9,-27.2c4.6,-7.3 2.4,-16.8 -4.9,-21.4c-7.2,-4.5 -16.8,-2.4 -21.4,4.8c-0.3,0.5 -8,12.8 -15.6,32.8c-3.1,8 0.9,17 9,20z" fill="#FFFFFF"/>
  </symbol>
 </defs>
 <g class="layer">
  <title>Layer 1</title>
  <path d="m796.89,64.5l-569.79,0c-87.19,0 -158.13,70.94 -158.13,158.13l0,736.87l324.49,-180.43l324.49,180.43l0,-736.86l-0.01,0c0,-43.53 35.41,-78.94 78.94,-78.94s78.94,35.41 78.94,78.94l0,277.47c-0.14,43.39 -35.55,78.68 -78.94,78.68l0,79.21c86.92,0 157.86,-70.71 158.14,-157.76l0,-277.6c0.01,-87.2 -70.93,-158.14 -158.13,-158.14zm-403.43,623.95l-245.29,136.39l0,-173.16l245.21,-138.3l245.38,138.4l0,173.06l-245.3,-136.39zm245.29,-127.61l-245.38,-138.4l-245.2,138.31l0,-338.12c0,-43.52 35.41,-78.93 78.93,-78.93l432.8,0c-13.45,23.25 -21.15,50.21 -21.15,78.94l0.01,0l0,338.2l-0.01,0z" fill="#07c160" id="svg_1"/>
  <use id="svg_3" transform="matrix(3.59895 0 0 3.65363 -59.4432 -69.4357)" x="61.95" xlink:href="#svg_2" y="69.23"/>
 </g>
</svg>