<?xml version="1.0"?>
<svg width="1102" height="1024" xmlns="http://www.w3.org/2000/svg" xmlns:svg="http://www.w3.org/2000/svg" xmlns:xlink="http://www.w3.org/1999/xlink" class="icon" version="1.1">
 <defs>
  <style type="text/css"/>
  <symbol class="icon" height="128" id="svg_11" version="1.1" viewBox="0 0 1024 1024" width="128" xmlns="http://www.w3.org/2000/svg" xmlns:xlink="http://www.w3.org/1999/xlink">
   <defs>
    <style type="text/css"/>
   </defs>
   <path d="m729.8,837c212,-122.4 284.7,-393.6 162.2,-605.6l-767.9,443.3c122.4,212.1 393.6,284.7 605.7,162.3z" fill="#FC6578"/>
   <path d="m472.7,856.1c-40.5,0 -80.8,-5.3 -120.4,-15.9c-58.3,-15.6 -112.1,-41.9 -160,-78.1c-49.6,-37.5 -90.7,-84 -122,-138.3c-2.8,-4.9 -3.6,-10.6 -2.1,-16.1c1.5,-5.4 5,-10 9.9,-12.9l767.9,-443.4c10.1,-5.8 23.1,-2.4 28.9,7.7c31.4,54.3 51.1,113.1 58.8,174.9c7.4,59.6 3.2,119.4 -12.4,177.6c-15.6,58.3 -41.9,112.1 -78.1,160c-37.5,49.6 -84,90.7 -138.3,122c-54.3,31.4 -113.1,51.1 -174.9,58.8c-19.1,2.5 -38.3,3.7 -57.3,3.7zm-354.7,-235.5c121,187.6 370.2,249.4 565.6,136.5l10.6,18.3l-10.6,-18.3c195.5,-112.8 266.6,-359.5 164.7,-558.1l-730.3,421.6z"/>
   <path d="m475.1,762.1c-31.9,0 -63.7,-4.2 -94.9,-12.6c-45.9,-12.3 -88.4,-33 -126.2,-61.6c-39.1,-29.6 -71.5,-66.3 -96.2,-109.1c-5.8,-10.1 -2.4,-23.1 7.7,-28.9l597.8,-344.9c4.9,-2.8 10.6,-3.6 16.1,-2.1c5.4,1.5 10,5 12.9,9.9c24.7,42.8 40.3,89.2 46.3,137.9c5.8,47 2.5,94.1 -9.8,140c-12.3,45.9 -33,88.4 -61.6,126.2c-29.6,39.1 -66.3,71.5 -109.1,96.2l-10.6,-18.3l10.6,18.3c-42.8,24.7 -89.2,40.3 -137.9,46.3c-14.9,1.8 -30,2.7 -45.1,2.7zm-269.4,-186.3c43.6,65.5 108.8,112.4 185.5,132.9c27.9,7.5 56.2,11.2 84.4,11.2c56.1,0 111.5,-14.7 161.4,-43.5c74.9,-43.3 128.5,-113.1 150.9,-196.7c20.6,-76.7 12.6,-156.6 -22.4,-227.1l-559.8,323.2z"/>
   <path d="m312.5,580.4c-7,0 -13.8,-3.6 -17.6,-10.2c-5.6,-9.7 -2.3,-22.1 7.4,-27.7l24.2,-14c9.7,-5.6 22.1,-2.3 27.7,7.4c5.6,9.7 2.3,22.1 -7.4,27.7l-24.2,14c-3.1,1.9 -6.6,2.8 -10.1,2.8zm326,-87.1c-7,0 -13.8,-3.6 -17.6,-10.2c-5.6,-9.7 -2.3,-22.1 7.4,-27.7l33,-19c9.7,-5.6 22.1,-2.3 27.7,7.4c5.6,9.7 2.3,22.1 -7.4,27.7l-33,19c-3.1,1.9 -6.6,2.8 -10.1,2.8zm-180.7,-4.1c-7,0 -13.8,-3.6 -17.6,-10.2c-5.6,-9.7 -2.3,-22.1 7.4,-27.7l33,-19c9.7,-5.6 22.1,-2.3 27.7,7.4c5.6,9.7 2.3,22.1 -7.4,27.7l-33,19c-3.2,1.9 -6.7,2.8 -10.1,2.8zm108.1,-22.8c-7,0 -13.8,-3.6 -17.6,-10.2c-5.6,-9.7 -2.3,-22.1 7.4,-27.7l33,-19c9.7,-5.6 22.1,-2.3 27.7,7.4c5.6,9.7 2.3,22.1 -7.4,27.7l-33,19c-3.2,1.9 -6.7,2.8 -10.1,2.8zm86.3,-93.5c-7,0 -13.8,-3.6 -17.6,-10.2c-5.6,-9.7 -2.3,-22.1 7.4,-27.7l33,-19c9.7,-5.6 22.1,-2.3 27.7,7.4c5.6,9.7 2.3,22.1 -7.4,27.7l-33,19c-3.1,1.9 -6.6,2.8 -10.1,2.8zm-116.5,207.4c-7,0 -13.8,-3.6 -17.6,-10.2c-5.6,-9.7 -2.3,-22.1 7.4,-27.7l33,-19c9.7,-5.6 22.1,-2.3 27.7,7.4s2.3,22.1 -7.4,27.7l-33,19c-3.1,1.9 -6.6,2.8 -10.1,2.8zm-123.1,12.7c-7,0 -13.8,-3.6 -17.6,-10.2c-5.6,-9.7 -2.3,-22.1 7.4,-27.7l33,-19c9.7,-5.6 22.1,-2.3 27.7,7.4c5.6,9.7 2.3,22.1 -7.4,27.7l-33,19c-3.2,1.9 -6.6,2.8 -10.1,2.8z"/>
  </symbol>
 </defs>
 <g class="layer">
  <title>Layer 1</title>
  <path d="m656.41,12.13a144.41,144.41 0 0 1 128.66,210.05l212.67,0a91.9,91.9 0 0 1 91.9,91.9l0,157.54a91.9,91.9 0 0 1 -78.77,90.95l0,302.89a144.41,144.41 0 0 1 -138.61,144.31l-5.8,0.1l-630.15,0a144.41,144.41 0 0 1 -144.31,-138.61l-0.1,-5.8l0,-302.87a91.9,91.9 0 0 1 -78.77,-90.97l0,-157.54a91.9,91.9 0 0 1 91.9,-91.9l212.67,0a144.41,144.41 0 0 1 233.68,-164.76a143.86,143.86 0 0 1 105.03,-45.29zm275.69,551.38l-756,-3.01c-0.33,62.99 -7.33,245.99 -7.67,308.98l65.67,72.31l634.58,0.51l64.58,-65.49l-1.17,-313.31l0,0.01zm-419.71,-262.56l-407.36,0a13.13,13.13 0 0 0 -13.13,13.13l0,157.54a13.13,13.13 0 0 0 13.13,13.12l407.36,0l0,-183.79zm485.35,0l-406.58,0l0,183.79l406.58,0a13.13,13.13 0 0 0 12.92,-10.76l0.21,-2.36l0,-157.54a13.13,13.13 0 0 0 -13.13,-13.13zm-551.38,-210.05a65.64,65.64 0 1 0 0,131.28a65.64,65.64 0 0 0 0,-131.28zm210.05,0a65.64,65.64 0 1 0 0,131.28a65.64,65.64 0 0 0 0,-131.28zl0,-78.77l0,78.77zm-841.41,75.54l58.33,-32l-58.33,32z" fill="#07c160" id="svg_1"/>
  <use id="svg_12" transform="matrix(4.93948 0 0 4.97658 278.17 141.787)" x="-6.5" xlink:href="#svg_11" y="48.04"/>
 </g>
</svg>