<?xml version="1.0"?>
<svg width="1024" height="1024" xmlns="http://www.w3.org/2000/svg" xmlns:svg="http://www.w3.org/2000/svg" xmlns:xlink="http://www.w3.org/1999/xlink" class="icon" version="1.1">
 <defs>
  <style type="text/css"/>
  <symbol class="icon" height="128" id="svg_3" version="1.1" viewBox="0 0 1024 1024" width="128" xmlns="http://www.w3.org/2000/svg" xmlns:xlink="http://www.w3.org/1999/xlink">
   <defs>
    <style type="text/css"/>
   </defs>
   <path class="selected" d="m512.26,959.78a447.85,447.85 0 0 1 -174.26,-860.28a445,445 0 0 1 174.26,-35.2a449.74,449.74 0 0 1 105.48,12.5a32,32 0 0 1 -15,62.21a385.65,385.65 0 0 0 -90.45,-10.71a383.74,383.74 0 1 0 383.71,383.7a32,32 0 0 1 64,0a447.39,447.39 0 0 1 -447.74,447.78z" data-spm-anchor-id="a313x.7781069.0.i74" fill="#07c160"/>
   <path d="m889,336.84a412,412 0 0 1 23.27,62.25" fill="#FFFFFF"/>
   <path d="m912.21,431.09a32,32 0 0 1 -30.76,-23.26a381.3,381.3 0 0 0 -21.45,-57.41a32,32 0 0 1 57.95,-27.17a445.62,445.62 0 0 1 25.05,67.08a32,32 0 0 1 -30.8,40.76l0.01,0z" fill="#229B00"/>
   <path d="m714.6,150a416.51,416.51 0 0 1 92,69.55q14.46,14.48 27.47,30.34" fill="#FFFFFF"/>
   <path d="m834.11,281.85a31.94,31.94 0 0 1 -24.76,-11.71c-8,-9.71 -16.49,-19.13 -25.37,-28a384.31,384.31 0 0 0 -84.98,-64.22a32,32 0 1 1 31.17,-55.92a448.32,448.32 0 0 1 99.09,74.9a455.34,455.34 0 0 1 29.58,32.67a32,32 0 0 1 -24.73,52.29l0,-0.01z" fill="#229B00"/>
   <path d="m512,512m-320.22,0a320.22,320.22 0 1 0 640.44,0a320.22,320.22 0 1 0 -640.44,0z" fill="#F35336"/>
   <path d="m647.92,327.66c-8,12.41 -48,26.12 -48,26.12a0.75,0.75 0 0 1 -1,-0.67s-3.99,-42.11 4.08,-54.52a26.77,26.77 0 1 1 45,29.07l-0.08,0zm76.08,98.27c-12.87,7.28 -54.66,0.89 -54.66,0.89a0.75,0.75 0 0 1 -0.61,-1.08s16,-39.12 28.91,-46.4a26.77,26.77 0 0 1 26.36,46.59zm10.56,120.41c-14.36,-3.49 -40.47,-36.75 -40.47,-36.75a0.75,0.75 0 0 1 0.29,-1.2s38.47,-17.56 52.83,-14.06a26.77,26.77 0 1 1 -12.65,52l0,0.01zm-43.21,104.58c-11.4,-9.41 -20.4,-50.72 -20.4,-50.72a0.75,0.75 0 0 1 0.79,-1s42.27,1 53.68,10.38a26.77,26.77 0 0 1 -34.06,41.3l-0.01,0.04zm-91.44,71c-5.4,-13.76 6.8,-54.25 6.8,-54.25a0.75,0.75 0 0 1 1.15,-0.45s36.48,21.38 41.88,35.14a26.77,26.77 0 0 1 -49.83,19.56zm-225.27,-394.26c8,12.41 48,26.12 48,26.12a0.75,0.75 0 0 0 1,-0.67s3.91,-42.1 -4.11,-54.52a26.77,26.77 0 0 0 -45,29.07l0.11,0zm-76.06,98.27c12.87,7.28 54.66,0.89 54.66,0.89a0.75,0.75 0 0 0 0.61,-1.08s-16,-39.12 -28.91,-46.4a26.77,26.77 0 1 0 -26.36,46.59zm-10.58,120.41c14.36,-3.49 40.47,-36.75 40.47,-36.75a0.75,0.75 0 0 0 -0.29,-1.2s-38.47,-17.56 -52.83,-14.06a26.77,26.77 0 1 0 12.65,52l0,0.01zm43.21,104.58c11.4,-9.41 20.4,-50.72 20.4,-50.72a0.75,0.75 0 0 0 -0.79,-1s-42.27,1 -53.68,10.38a26.77,26.77 0 1 0 34.06,41.3l0.01,0.04zm91.44,71c5.4,-13.76 -6.8,-54.25 -6.8,-54.25a0.75,0.75 0 0 0 -1.15,-0.45s-36.48,21.38 -41.88,35.14a26.77,26.77 0 0 0 49.83,19.56z"/>
  </symbol>
 </defs>
 <g class="layer">
  <title>Layer 1</title>
  <path d="m378.48,227.56c-161.28,0 -293.15,133.09 -293.15,298.66c0,165.61 131.93,298.67 293.15,298.67a12.15,12.15 0 0 0 11.52,-8.34l2.62,-7.87a142.08,142.08 0 0 1 134.94,-97.57l40.76,0a42.67,42.67 0 1 1 0,85.33l-40.76,0c-24.46,0 -46.22,15.71 -53.87,38.97l-2.59,7.85a97.51,97.51 0 0 1 -92.68,66.96c-209.6,0 -378.42,-172.57 -378.42,-384c0,-211.4 168.85,-384 378.48,-384l267.04,0c209.69,0 378.48,172.6 378.48,384c0,211.43 -168.79,384 -378.48,384a42.67,42.67 0 1 1 0,-85.33c161.28,0 293.15,-133.06 293.15,-298.67c0,-165.57 -131.93,-298.66 -293.15,-298.66l-267.07,0l0.06,0l-0.03,0z" fill="#07c160" id="svg_1" transform="matrix(1 0 0 1 0 0)"/>
  <path d="m708.72,373.85a42.67,42.67 0 0 1 42.67,42.66l0,24.38a42.67,42.67 0 0 1 -85.33,0l0,-24.38a42.67,42.67 0 0 1 42.66,-42.66zm0,195.04a42.67,42.67 0 0 1 42.67,42.67l0,24.37a42.67,42.67 0 0 1 -85.33,0l0,-24.37a42.67,42.67 0 0 1 42.66,-42.67z" fill="#07c160" id="svg_2"/>
  <use id="svg_4" transform="matrix(3.24765 0 0 3.17437 266.493 -178.69)" x="-40.71" xlink:href="#svg_3" y="158"/>
 </g>
</svg>