<?xml version="1.0"?>
<svg width="1024" height="1024" xmlns="http://www.w3.org/2000/svg" xmlns:svg="http://www.w3.org/2000/svg" xmlns:xlink="http://www.w3.org/1999/xlink" class="icon" version="1.1">
 <defs>
  <style type="text/css"/>
  <symbol class="icon" height="128" id="svg_5" version="1.1" viewBox="0 0 1024 1024" width="128" xmlns="http://www.w3.org/2000/svg" xmlns:xlink="http://www.w3.org/1999/xlink">
   <defs>
    <style type="text/css"/>
   </defs>
   <path class="selected" d="m517.11,32.13c265.39,0 480.54,215.15 480.54,480.55c0,265.39 -215.15,480.54 -480.54,480.54l0,-961.09z" data-spm-anchor-id="a313x.7781069.0.i1" fill="#07c160"/>
   <path d="m506.62,59.66c250.2,0 453.02,202.83 453.02,453.02c0,250.19 -202.82,453.02 -453.02,453.02l0,-906.04z" fill="#EB4E41"/>
   <path class="selected" d="m517.11,32.13c-265.4,0 -480.54,215.15 -480.54,480.55c0,265.39 215.14,480.54 480.54,480.54l0,-961.09z" data-spm-anchor-id="a313x.7781069.0.i0" fill="#07c160"/>
   <path d="m635.24,213.46m-34.27,0a34.27,34.27 0 1 0 68.55,0a34.27,34.27 0 1 0 -68.55,0z" fill="#770000"/>
   <path d="m635.24,811.89m-34.27,0a34.27,34.27 0 1 0 68.55,0a34.27,34.27 0 1 0 -68.55,0z" fill="#770000"/>
   <path d="m775.21,322.18m-34.27,0a34.27,34.27 0 1 0 68.55,0a34.27,34.27 0 1 0 -68.55,0z" fill="#770000"/>
   <path d="m775.21,692m-34.27,0a34.27,34.27 0 1 0 68.55,0a34.27,34.27 0 1 0 -68.55,0z" fill="#770000"/>
   <path d="m831.87,499.04m-34.27,0a34.27,34.27 0 1 0 68.55,0a34.27,34.27 0 1 0 -68.55,0z" fill="#770000"/>
   <path d="m288.46,935.43a477.51,477.51 0 0 0 97.57,39.54l0,-924.59a477.53,477.53 0 0 0 -97.57,39.55l0,845.5zm-158.19,-707.79c-58.86,79.75 -93.7,178.31 -93.7,285.04s34.84,205.28 93.7,285.04l0,-570.08zm286.07,-184.84l0,939.75a482.25,482.25 0 0 0 100.77,10.67l0,-961.09c-34.58,0 -68.27,3.74 -100.77,10.67zm-158.19,65.18a483.02,483.02 0 0 0 -97.58,82.55l0,644.3a482.88,482.88 0 0 0 97.58,82.55l0,-809.4z" fill="#97CF43"/>
  </symbol>
 </defs>
 <g class="layer">
  <title>Layer 1</title>
  <path d="m831.83,63.94l-639.89,0c-70.69,0 -128,57.31 -128,128l0,639.89c0,70.69 57.31,128 128,128l639.89,0c70.69,0 128,-57.31 128,-128l0,-639.89c0,-70.69 -57.31,-128 -128,-128zm64.05,768.06a63.84,63.84 0 0 1 -63.97,63.88l-639.82,0c-17.11,0 -33.27,-6.57 -45.37,-18.67s-18.84,-28.1 -18.84,-45.21l0,-640a64.24,64.24 0 0 1 64.21,-64.12l639.82,0a64.04,64.04 0 0 1 63.97,64.12l0,640z" fill="#07c160" id="svg_1"/>
  <path d="m792,351.85l-256,0a31.97,31.97 0 0 0 0,63.94l256,0a31.97,31.97 0 0 0 0,-63.94zm0,256.12l-256,0a31.97,31.97 0 0 0 0,63.94l256,0a31.97,31.97 0 0 0 0,-63.94zm-374.6,-310.58l-105.4,105.4l-41.39,-41.4a31.97,31.97 0 1 0 -45.22,45.22l64,64a31.97,31.97 0 0 0 45.22,0l128,-128a31.97,31.97 0 0 0 -45.21,-45.22z" fill="#07c160" id="svg_2"/>
  <use id="svg_6" transform="matrix(1.93037 0 0 1.86725 184.27 498.822)" x="20.72" xlink:href="#svg_5" y="14.13"/>
 </g>
</svg>