<?xml version="1.0"?>
<svg width="1024" height="1024" xmlns="http://www.w3.org/2000/svg" xmlns:svg="http://www.w3.org/2000/svg" xmlns:xlink="http://www.w3.org/1999/xlink" class="icon" version="1.1">
 <defs>
  <style type="text/css"/>
  <symbol class="icon" height="128" id="svg_3" version="1.1" viewBox="0 0 1125 1024" width="140.63" xmlns="http://www.w3.org/2000/svg" xmlns:xlink="http://www.w3.org/1999/xlink">
   <defs>
    <style type="text/css"/>
   </defs>
   <path d="m179.82,787.73a407.58,407.58 0 1 0 -105.49,-393.7a407.58,407.58 0 0 0 105.5,393.69l-0.01,0.01zm0,0" fill="#55B765"/>
   <path d="m234.85,266.37c-159.15,159.14 -137.54,438.72 -55,521.31c74.92,74.91 362.17,104.15 521.29,-55.04s140,-436.31 55.04,-521.29c-82.54,-82.68 -362.16,-104.16 -521.29,55.04l-0.04,-0.02zm0,0" fill="#92DD98"/>
   <path d="m309.5,341.03c-164.19,164.19 -185.8,408.87 -138.84,455.87c46.45,46.45 291.65,25.36 455.87,-138.84s189,-405.64 138.84,-455.87c-52.01,-52.01 -291.51,-25.37 -455.87,138.84zm0,0" fill="#55B765"/>
   <path d="m407.32,438.71c-159.14,159.15 -246.61,329.72 -227.47,348.97c20.06,20.05 189.83,-68.32 348.98,-227.47s247.52,-328.91 227.41,-348.96c-19.41,-19.28 -189.81,68.31 -348.91,227.41l-0.01,0.05zm0,0" fill="#92DD98"/>
   <path d="m824.41,658.66a21.23,21.23 0 0 1 -20.36,-27.18q3.31,-11.26 5.95,-22.79a21.21,21.21 0 0 1 41.34,9.53q-2.94,12.74 -6.58,25.19a21.23,21.23 0 0 1 -20.35,15.25z"/>
   <path d="m440.96,924.05c-243.15,0 -440.96,-197.82 -440.96,-440.96s197.81,-440.96 440.96,-440.96s440.96,197.81 440.96,440.96q0,12.46 -0.68,24.8a21.21,21.21 0 0 1 -42.36,-2.4q0.64,-11.11 0.63,-22.39c0,-219.77 -178.79,-398.55 -398.54,-398.55s-398.56,178.77 -398.56,398.54s178.77,398.53 398.55,398.53a398.56,398.56 0 0 0 330.07,-175.09a21.2,21.2 0 0 1 35.1,23.81a440.9,440.9 0 0 1 -365.17,193.71z"/>
   <path d="m724.25,236.11c7.55,7.55 17.31,11.75 25.61,11.02s13.84,-6.29 14.53,-14.53s-3.47,-18.05 -11.02,-25.61s-17.29,-11.77 -25.58,-11.07s-13.85,6.29 -14.54,14.54s3.48,18.05 11.03,25.6l-0.03,0.05zm0,0"/>
   <path d="m727.38,217.6a13.42,13.42 0 0 0 19.01,0l69.66,-69.66l-19,-19l-69.67,69.67a13.42,13.42 0 0 0 0,18.99zm75.32,-105.64l27,0l0,-98.46a13.5,13.5 0 0 0 -27,0l0,98.46zm0,0"/>
   <path d="m782.76,94.5a20.25,20.25 0 1 1 -14.33,5.88a19.63,19.63 0 0 1 14.33,-5.88m0,-27a46.4,46.4 0 0 0 -33.28,13.88a47.23,47.23 0 0 0 33.28,80.61a46.61,46.61 0 0 0 33.23,-13.87a47.23,47.23 0 0 0 -33.23,-80.58l0,-0.04zm0,0"/>
   <path d="m309.98,228.3a21.21,21.21 0 0 1 -14.22,-36.95c86.19,-77.88 199.26,-43.83 204.05,-42.34a21.2,21.2 0 0 1 -12.56,40.5c-1.58,-0.46 -95.32,-27.88 -163.03,33.31a21.18,21.18 0 0 1 -14.24,5.48z" fill="#FFFFFF"/>
   <path d="m308.38,414.21m-42.3,0a42.31,42.31 0 1 0 84.61,0a42.31,42.31 0 1 0 -84.61,0z"/>
   <path/>
   <path d="m452.46,621.14c-35.37,0 -64.14,-24.16 -64.14,-53.87a14.13,14.13 0 1 1 28.27,0c0,13.87 16.43,25.6 35.87,25.6s35.87,-11.73 35.87,-25.6a14.13,14.13 0 1 1 28.28,0c0,29.7 -28.78,53.87 -64.15,53.87z"/>
  </symbol>
 </defs>
 <g class="layer">
  <title>Layer 1</title>
  <path d="m280.39,878.44a37.47,37.47 0 0 1 -19.04,-5.18c-11.65,-6.85 -18.68,-19.45 -18.46,-32.96l1.24,-74.05c-106.22,-61.94 -171.25,-168.51 -171.25,-283.19c0,-186.09 168.23,-337.5 375.01,-337.5c206.77,0 375,151.41 375,337.5s-168.23,337.5 -375,337.5c-16.66,0 -33.54,-1.12 -51.3,-3.41l-97.45,56.27a37.56,37.56 0 0 1 -18.75,5.02zm167.5,-657.88c-165.41,0 -300.01,117.76 -300.01,262.5c0,93.53 57.86,180.75 151,227.58a37.49,37.49 0 0 1 20.62,34.15l-0.51,30.56l51.3,-29.62c7.44,-4.27 16.15,-5.9 24.58,-4.56c18.86,2.94 36.2,4.39 53.02,4.39c165.42,0 300,-117.75 300,-262.5s-134.58,-262.5 -300,-262.5zm367.59,657.88a37.44,37.44 0 0 1 -22.69,-7.64l-77.96,-59.21c-16.5,-12.53 -19.71,-36.06 -7.18,-52.55c12.52,-16.47 36.03,-19.71 52.53,-7.18l19.52,14.83l0.22,-9.38a37.49,37.49 0 0 1 21.4,-32.99c77.57,-36.86 93.83,-109.86 93.83,-164.63c0,-37.14 -12.51,-73.08 -36.18,-103.91c-12.6,-16.43 -9.53,-39.98 6.92,-52.57c16.4,-12.64 39.95,-9.51 52.57,6.9c33.82,44.05 51.69,95.78 51.69,149.58c0,99.11 -40.89,176.79 -115.76,221.26l-1.43,60.87a37.52,37.52 0 0 1 -21.21,32.9a37.52,37.52 0 0 1 -16.27,3.72z" fill="#07c160" id="svg_1"/>
  <path d="m280.39,445.56c20.69,0 37.5,16.79 37.5,37.5s-16.81,37.5 -37.5,37.5c-20.73,0 -37.5,-16.79 -37.5,-37.5s16.77,-37.5 37.5,-37.5zm162.87,0c20.71,0 37.5,16.79 37.5,37.5s-16.79,37.5 -37.5,37.5s-37.5,-16.79 -37.5,-37.5s16.79,-37.5 37.5,-37.5zm162.87,0c20.71,0 37.5,16.79 37.5,37.5s-16.79,37.5 -37.5,37.5s-37.5,-16.79 -37.5,-37.5s16.8,-37.5 37.5,-37.5z" fill="#07c160" id="svg_2"/>
  <use id="svg_4" transform="matrix(4.59702 0 0 4.45886 244.524 261.297)" x="-11.79" xlink:href="#svg_3" y="-10.16"/>
 </g>
</svg>