<?xml version="1.0" standalone="no"?><!DOCTYPE svg PUBLIC "-//W3C//DTD SVG 1.1//EN" "http://www.w3.org/Graphics/SVG/1.1/DTD/svg11.dtd"><svg t="1652976975145" class="icon" viewBox="0 0 1024 1024" version="1.1" xmlns="http://www.w3.org/2000/svg" p-id="2960" xmlns:xlink="http://www.w3.org/1999/xlink" width="128" height="128"><defs><style type="text/css"></style></defs><path d="M537.216 1003.776h-427.52c-27.072 0-52.8-11.456-70.592-31.296a76.352 76.352 0 0 1-19.904-58.88l-0.192-60.16a32 32 0 0 1 64 0v63.872c-0.384 5.44 0.576 8.832 3.968 12.608a30.656 30.656 0 0 0 22.72 9.856h427.52a32 32 0 0 1 0 64z" fill="#ffccd3" p-id="2961"></path><path d="M50.752 934.144a32 32 0 0 1-32-32v-60.032a457.536 457.536 0 0 1 277.952-421.12 32.192 32.192 0 0 1 42.048 16.832 32.128 32.128 0 0 1-16.896 42.112 393.408 393.408 0 0 0-239.104 362.24v60.032a32 32 0 0 1-32 31.936z" fill="#ffccd3" p-id="2962"></path><path d="M460.736 514.496a247.36 247.36 0 0 1-247.104-247.104A247.424 247.424 0 0 1 460.736 20.224a247.424 247.424 0 0 1 247.168 247.168 247.36 247.36 0 0 1-247.168 247.104z m0-430.272a183.36 183.36 0 0 0-183.104 183.168 183.296 183.296 0 0 0 183.104 183.104 183.36 183.36 0 0 0 183.168-183.104 183.36 183.36 0 0 0-183.168-183.168zM778.56 829.376c-42.944 0-77.888-34.944-77.888-77.888s34.944-77.888 77.888-77.888 77.888 34.944 77.888 77.888-34.944 77.888-77.888 77.888z m0-110.976a33.216 33.216 0 1 0 0.064 66.368 33.216 33.216 0 0 0-0.064-66.368z" fill="#ffccd3" p-id="2963"></path><path d="M834.56 960.384a22.4 22.4 0 0 1-22.144-19.2 35.2 35.2 0 0 0-34.56-30.208c-17.152 0-32 12.864-34.624 30.016a22.272 22.272 0 0 1-28.736 17.984 217.536 217.536 0 0 1-84.352-49.344 22.4 22.4 0 0 1 1.28-33.728 35.136 35.136 0 0 0 8.32-44.864 35.84 35.84 0 0 0-42.88-15.04 22.4 22.4 0 0 1-29.76-15.936c-3.712-16.448-5.632-32.768-5.632-48.64s1.92-32.192 5.632-48.64a22.144 22.144 0 0 1 11.2-14.72 22.528 22.528 0 0 1 18.496-1.216 34.944 34.944 0 1 0 34.56-59.968 22.336 22.336 0 0 1-8.192-16.64 21.248 21.248 0 0 1 6.976-16.96 217.472 217.472 0 0 1 84.352-49.28 22.4 22.4 0 0 1 28.672 18.048 35.328 35.328 0 0 0 34.624 29.952 35.2 35.2 0 0 0 34.56-30.208 22.4 22.4 0 0 1 28.608-18.304 217.6 217.6 0 0 1 85.248 49.088 22.336 22.336 0 0 1-1.472 34.048 34.88 34.88 0 0 0-8.896 45.056 35.84 35.84 0 0 0 43.776 14.784 22.592 22.592 0 0 1 30.208 15.552 214.336 214.336 0 0 1 0 98.816 22.592 22.592 0 0 1-30.336 15.552 35.456 35.456 0 0 0-43.648 14.72 35.008 35.008 0 0 0 8.96 45.184 22.4 22.4 0 0 1 1.408 34.048 218.368 218.368 0 0 1-85.312 49.024 19.584 19.584 0 0 1-6.336 1.024z m-56.768-94.144c30.144 0 57.024 17.216 70.592 42.752 10.624-4.736 20.864-10.624 30.528-17.536a79.232 79.232 0 0 1-1.728-82.56 81.024 81.024 0 0 1 72.832-39.744 164.16 164.16 0 0 0 0-35.264 81.28 81.28 0 0 1-72.768-39.68 80.128 80.128 0 0 1 1.792-82.496 166.336 166.336 0 0 0-30.656-17.664c-13.504 25.6-40.448 42.816-70.592 42.816-29.824 0-56.64-17.024-70.336-42.304a179.072 179.072 0 0 0-30.336 17.792c15.104 24.384 16.256 55.68 1.28 81.792-14.528 25.216-43.008 42.432-71.296 39.872a147.776 147.776 0 0 0 0 35.008 83.84 83.84 0 0 1 71.296 39.744c15.04 26.24 13.888 57.536-1.216 81.92 9.472 6.976 19.648 12.928 30.336 17.792 13.696-25.216 40.512-42.24 70.272-42.24z" fill="#ffccd3" p-id="2964"></path></svg>